# xmcd CD database file
#
# Track frame offsets:
#	150
#	13156
#	26259
#	39263
#	53712
#	114488
#	132094
#	153991
#	174452
#	187998
#	202965
#	240208
#	275864
#	289709
#	303947
#
# Disc length: 4239 seconds
#
# Revision: 0
# Processed by: cddbd v1.5.2PL0 Copyright (c) Steve Scherf et al.
# Submitted via: CDex 1.51
#
DISCID=bc108d0f
DTITLE=Charlie Parker - The Quintessence 1947-1954 CD2
DYEAR=2006
DGENRE=Jazz
TTITLE0=Happy Bird Blues
TTITLE1=Back Home Blues
TTITLE2=Blues for Alice
TTITLE3=Lover
TTITLE4=Funky Blues
TTITLE5=Rocker
TTITLE6=Moose the Mooche
TTITLE7=Lester Leaps In
TTITLE8=The Song is You
TTITLE9=Cosmic Rays
TTITLE10=Perdido
TTITLE11=Al the Things You Are
TTITLE12=Confirmation
TTITLE13=Chi-Chi
TTITLE14=Cherokee
EXTD=YEAR: 2006
EXTT0=
EXTT1=
EXTT2=
EXTT3=
EXTT4=
EXTT5=
EXTT6=
EXTT7=
EXTT8=
EXTT9=
EXTT10=
EXTT11=
EXTT12=
EXTT13=
EXTT14=
PLAYORDER=
